HIERARCHY
ROOT Hips
{
    OFFSET -0.1800 -22.3300 2.8200
    CHANNELS 6 Xposition Yposition Zposition Zrotation Yrotation Xrotation 
    JOINT LeftUpLeg
    {
        OFFSET -0.6800 6.9500 -9.1400
        CHANNELS 3 Zrotation Yrotation Xrotation
        JOINT LeftLeg
        {
            OFFSET -0.4500 3.4300 -37.5200
            CHANNELS 3 Zrotation Yrotation Xrotation
            JOINT LeftFoot
            {
                OFFSET -4.3700 -1.3600 -39.8000
                CHANNELS 3 Zrotation Yrotation Xrotation
                JOINT LeftToe
                {
                    OFFSET 11.9300 2.6400 -5.5800
                    CHANNELS 3 Zrotation Yrotation Xrotation
                    End Site
                    {
                        OFFSET 0.0000 0.0000 0.0000
                    }
                }
            }
        }
    }
    JOINT RightUpLeg
    {
        OFFSET -0.4300 -6.7700 -9.0500
        CHANNELS 3 Zrotation Yrotation Xrotation
        JOINT RightLeg
        {
            OFFSET -0.8900 -3.8300 -38.2600
            CHANNELS 3 Zrotation Yrotation Xrotation
            JOINT RightFoot
            {
                OFFSET -4.2300 1.5800 -39.8400
                CHANNELS 3 Zrotation Yrotation Xrotation
                JOINT RightToe
                {
                    OFFSET 12.3300 -2.5400 -4.8100
                    CHANNELS 3 Zrotation Yrotation Xrotation
                    End Site
                    {
                        OFFSET 0.0000 0.0000 0.0000
                    }
                }
            }
        }
    }
    JOINT Spine
    {
        OFFSET -2.6700 -0.2500 10.9000
        CHANNELS 3 Zrotation Yrotation Xrotation
        JOINT Spine1
        {
            OFFSET 0.1100 0.5500 13.5200
            CHANNELS 3 Zrotation Yrotation Xrotation
            JOINT Spine2
            {
                OFFSET 2.5400 0.1500 5.2900
                CHANNELS 3 Zrotation Yrotation Xrotation
                JOINT Neck
                {
                    OFFSET -4.2900 -0.2800 21.3900
                    CHANNELS 3 Zrotation Yrotation Xrotation
                    JOINT Head
                    {
                        OFFSET 5.1300 0.5200 6.5000
                        CHANNELS 3 Zrotation Yrotation Xrotation
                        End Site
                        {
                            OFFSET 0.0000 0.0000 0.0000
                        }
                    }
                }
                JOINT LeftShoulder
                {
                    OFFSET -3.4100 7.8800 12.1700
                    CHANNELS 3 Zrotation Yrotation Xrotation
                    JOINT LeftArm
                    {
                        OFFSET -0.8900 9.1000 3.0500
                        CHANNELS 3 Zrotation Yrotation Xrotation
                        JOINT LeftForeArm
                        {
                            OFFSET -2.7500 25.9600 -1.2800
                            CHANNELS 3 Zrotation Yrotation Xrotation
                            JOINT LeftHand
                            {
                                OFFSET -1.4900 8.4000 -0.8200
                                CHANNELS 3 Zrotation Yrotation Xrotation
                                End Site
                                {
                                    OFFSET 0.0000 0.0000 0.0000
                                }
                            }
                        }
                    }
                }
                JOINT RightShoulder
                {
                    OFFSET -3.8600 -8.1800 11.8800
                    CHANNELS 3 Zrotation Yrotation Xrotation
                    JOINT RightArm
                    {
                        OFFSET -0.9100 -9.6000 3.2600
                        CHANNELS 3 Zrotation Yrotation Xrotation
                        JOINT RightForeArm
                        {
                            OFFSET -2.1400 -25.3700 -1.3300
                            CHANNELS 3 Zrotation Yrotation Xrotation
                            JOINT RightHand
                            {
                                OFFSET -1.0300 -8.4600 -0.6100
                                CHANNELS 3 Zrotation Yrotation Xrotation
                                End Site
                                {
                                    OFFSET 0.0000 0.0000 0.0000
                                }
                            }
                        }
                    }
                }
            }
        }
    }
}
MOTION
Frames: 7
Frame Time: 0.016667
0.077471 -0.022649 -0.023092 38.244759 -1.731879 -0.120629 -5.860227 -2.541829 0.397665 0.818026 9.301355 -2.542630 11.819475 -8.286320 -3.781412 -13.393438 9.112073 0.242011 -5.593932 2.984724 -6.200697 -3.597548 3.313652 0.075966 -5.295012 -3.330101 6.304064 -5.497936 1.053250 -7.246889 1.728047 4.498842 1.727632 3.103202 0.030924 -0.645020 1.926073 -0.298230 -1.132845 -1.786128 2.679165 -1.704775 0.611828 1.188451 2.280346 -6.783831 -4.190814 -13.071655 -12.942275 -0.287004 -33.911232 -115.659668 16.730734 8.271735 -11.215907 -3.761860 24.114862 8.890350 -4.842766 13.345032 20.922689 -2.318037 44.370346 121.563690 15.017424 -5.977432 12.156723 -8.835733 -5.431344 
0.074698 -0.019679 -0.022023 37.649601 -1.541298 -0.621137 -6.566134 -2.700389 0.560202 2.051874 8.778912 -1.675256 12.351579 -6.176490 -3.093709 -12.591136 7.339331 4.292892 -5.569746 1.780549 -5.713095 -2.859069 4.040512 -0.037131 -4.842444 -4.827605 6.794123 -4.422903 9.583878 -3.281103 0.171458 4.513943 2.546906 1.014241 -0.814180 1.182264 1.460829 -0.151860 -0.794964 2.047375 2.070576 -2.268549 0.628678 1.862564 2.096374 -10.976686 -8.111004 -7.563784 -14.051888 -3.585909 -24.222750 -107.151413 11.608121 15.024435 -9.881891 1.593768 26.423515 10.312733 -2.879755 12.115761 21.886047 1.900272 44.692909 115.990295 15.263577 -2.613104 12.941339 -11.032452 -5.051981 
0.072598 -0.016903 -0.020233 37.402122 -1.667719 -1.238289 -6.566134 -2.700389 0.560202 2.051874 8.778912 -1.675256 12.351579 -6.176490 -3.093709 -12.591136 7.339331 4.292892 -5.569746 1.780549 -5.713095 -2.859069 4.040512 -0.037131 -4.842444 -4.827605 6.794123 -4.422903 9.583878 -3.281103 0.171458 4.513943 2.546906 1.014241 -0.814180 1.182264 1.460829 -0.151860 -0.794964 2.047375 2.070576 -2.268549 0.628678 1.862564 2.096374 -10.976686 -8.111004 -7.563784 -14.051888 -3.585909 -24.222750 -107.151413 11.608121 15.024435 -9.881891 1.593768 26.423515 10.312733 -2.879755 12.115761 21.886047 1.900272 44.692909 115.990295 15.263577 -2.613104 12.941339 -11.032452 -5.051981 
0.071882 -0.013436 -0.018539 37.354740 -1.802103 -1.723132 -5.681118 -2.788548 0.731725 1.600500 9.385605 -0.832564 13.644588 -5.736609 -4.315213 -14.338687 7.080699 4.981107 -5.210527 1.912953 -4.819783 -3.186519 6.653679 0.421090 -5.882531 -6.759043 5.589036 -0.916894 16.199762 3.446785 -2.095191 6.338537 3.287365 -0.856433 -2.019050 2.659502 1.170323 -0.169106 -0.440779 5.544170 1.926606 -2.520097 1.725175 3.486918 1.406977 -12.210955 -9.773839 -5.193219 -13.593004 -4.227820 -19.448675 -103.134811 7.523891 16.879536 -10.628671 2.849483 28.207493 9.925193 -1.147165 12.498617 22.496498 5.519503 44.334206 112.923981 15.611761 -1.210638 14.692242 -12.290389 -6.192430 
0.071626 -0.008116 -0.016681 37.718998 -1.944318 -2.019383 -5.681118 -2.788548 0.731725 1.600500 9.385605 -0.832564 13.644588 -5.736609 -4.315213 -14.338687 7.080699 4.981107 -5.210527 1.912953 -4.819783 -3.186519 6.653679 0.421090 -5.882531 -6.759043 5.589036 -0.916894 16.199762 3.446785 -2.095191 6.338537 3.287365 -0.856433 -2.019050 2.659502 1.170323 -0.169106 -0.440779 5.544170 1.926606 -2.520097 1.725175 3.486918 1.406977 -12.210955 -9.773839 -5.193219 -13.593004 -4.227820 -19.448675 -103.134811 7.523891 16.879536 -10.628671 2.849483 28.207493 9.925193 -1.147165 12.498617 22.496498 5.519503 44.334206 112.923981 15.611761 -1.210638 14.692242 -12.290389 -6.192430 
0.071720 -0.002488 -0.015133 38.671665 -2.103515 -1.981343 -4.338675 -2.374962 1.551758 -1.276595 9.440283 -2.459788 14.116221 -5.742728 -7.798273 -15.710202 4.856189 0.833096 -5.773772 3.732742 -4.243973 -2.983055 4.237280 0.752690 -10.729097 -4.201165 2.385256 1.397203 16.881495 4.725101 -3.120517 5.508122 3.719483 -1.922779 -1.256776 3.622941 0.521132 -0.360243 0.010550 7.867038 3.671677 -2.912658 4.677728 4.127724 1.513882 -12.531621 -11.339538 -3.114472 -12.040722 -3.998352 -15.396702 -101.419739 6.046379 13.825958 -10.865673 2.355166 18.658606 9.595304 -1.513668 8.859132 21.369663 5.388531 40.532787 119.149437 13.696327 -0.117436 13.531198 -24.376451 1.358848 
0.071314 0.001918 -0.013742 39.553284 -2.331348 -1.452254 -4.338675 -2.374962 1.551758 -1.276595 9.440283 -2.459788 14.116221 -5.742728 -7.798273 -15.710202 4.856189 0.833096 -5.773772 3.732742 -4.243973 -2.983055 4.237280 0.752690 -10.729097 -4.201165 2.385256 1.397203 16.881495 4.725101 -3.120517 5.508122 3.719483 -1.922779 -1.256776 3.622941 0.521132 -0.360243 0.010550 7.867038 3.671677 -2.912658 4.677728 4.127724 1.513882 -12.531621 -11.339538 -3.114472 -12.040722 -3.998352 -15.396702 -101.419739 6.046379 13.825958 -10.865673 2.355166 18.658606 9.595304 -1.513668 8.859132 21.369663 5.388531 40.532787 119.149437 13.696327 -0.117436 13.531198 -24.376451 1.358848 
